Normalized EMG Linear Envelopes
nRows=32
nColumns=17

endheader
time	        VM	        VL	        RF	       GRA	        TA	   ADDLONG	   SEMIMEM	      BFLH	        GM	        GL	       TFL	   GLUTMAX	   GLUTMED	      PIRI	    OBTINT	        QF	
1.725	  0.038614	  0.076048	  0.384361	  0.191802	  0.422156	  0.279305	  0.013763	  0.051708	  0.031560	  0.026074	  0.247942	  0.001750	  0.179295	  0.077878	  0.040503	  0.054763	
1.7255	  0.039436	  0.075964	  0.384268	  0.189456	  0.421418	  0.277514	  0.013526	  0.052109	  0.031821	  0.025908	  0.247061	  0.001827	  0.180800	  0.078225	  0.040562	  0.054921	
1.726	  0.040277	  0.075885	  0.384160	  0.187133	  0.420728	  0.275729	  0.013304	  0.052525	  0.032095	  0.025742	  0.246188	  0.001911	  0.182329	  0.078590	  0.040640	  0.055096	
1.7265	  0.041136	  0.075810	  0.384035	  0.184832	  0.420085	  0.273947	  0.013096	  0.052957	  0.032383	  0.025576	  0.245324	  0.002004	  0.183881	  0.078971	  0.040738	  0.055287	
1.727	  0.042015	  0.075741	  0.383893	  0.182554	  0.419490	  0.272167	  0.012903	  0.053405	  0.032685	  0.025410	  0.244469	  0.002105	  0.185456	  0.079370	  0.040854	  0.055493	
1.7275	  0.042912	  0.075677	  0.383736	  0.180298	  0.418942	  0.270387	  0.012726	  0.053869	  0.033001	  0.025245	  0.243623	  0.002215	  0.187052	  0.079785	  0.040990	  0.055716	
1.728	  0.043829	  0.075619	  0.383562	  0.178064	  0.418442	  0.268605	  0.012563	  0.054350	  0.033331	  0.025080	  0.242786	  0.002334	  0.188667	  0.080216	  0.041146	  0.055956	
1.7285	  0.044765	  0.075567	  0.383371	  0.175853	  0.417990	  0.266820	  0.012416	  0.054848	  0.033676	  0.024916	  0.241957	  0.002462	  0.190302	  0.080662	  0.041322	  0.056211	
1.729	  0.045721	  0.075522	  0.383164	  0.173664	  0.417585	  0.265031	  0.012285	  0.055363	  0.034035	  0.024753	  0.241137	  0.002599	  0.191953	  0.081124	  0.041518	  0.056482	
1.7295	  0.046696	  0.075483	  0.382939	  0.171498	  0.417228	  0.263236	  0.012170	  0.055896	  0.034410	  0.024590	  0.240325	  0.002747	  0.193622	  0.081601	  0.041735	  0.056769	
1.73	  0.047691	  0.075452	  0.382696	  0.169355	  0.416918	  0.261434	  0.012071	  0.056446	  0.034799	  0.024429	  0.239521	  0.002905	  0.195305	  0.082092	  0.041972	  0.057073	
1.7305	  0.048706	  0.075428	  0.382436	  0.167236	  0.416654	  0.259624	  0.011989	  0.057015	  0.035204	  0.024269	  0.238725	  0.003073	  0.197002	  0.082596	  0.042231	  0.057392	
1.731	  0.049741	  0.075412	  0.382159	  0.165141	  0.416438	  0.257805	  0.011924	  0.057602	  0.035624	  0.024110	  0.237936	  0.003251	  0.198711	  0.083115	  0.042512	  0.057728	
1.7315	  0.050796	  0.075403	  0.381864	  0.163071	  0.416267	  0.255978	  0.011876	  0.058207	  0.036060	  0.023953	  0.237155	  0.003441	  0.200431	  0.083646	  0.042815	  0.058080	
1.732	  0.051872	  0.075403	  0.381552	  0.161025	  0.416143	  0.254140	  0.011846	  0.058833	  0.036512	  0.023797	  0.236379	  0.003642	  0.202161	  0.084190	  0.043141	  0.058448	
1.7325	  0.052968	  0.075410	  0.381223	  0.159004	  0.416064	  0.252292	  0.011833	  0.059478	  0.036979	  0.023643	  0.235610	  0.003855	  0.203899	  0.084745	  0.043490	  0.058832	
1.733	  0.054084	  0.075426	  0.380877	  0.157009	  0.416030	  0.250433	  0.011839	  0.060144	  0.037463	  0.023490	  0.234847	  0.004080	  0.205644	  0.085313	  0.043863	  0.059232	
1.7335	  0.055220	  0.075450	  0.380515	  0.155040	  0.416040	  0.248563	  0.011863	  0.060830	  0.037963	  0.023339	  0.234088	  0.004316	  0.207395	  0.085891	  0.044261	  0.059649	
1.734	  0.056377	  0.075483	  0.380136	  0.153099	  0.416093	  0.246680	  0.011907	  0.061537	  0.038479	  0.023190	  0.233334	  0.004566	  0.209150	  0.086479	  0.044684	  0.060082	
1.7345	  0.057555	  0.075525	  0.379741	  0.151185	  0.416188	  0.244786	  0.011969	  0.062266	  0.039012	  0.023043	  0.232583	  0.004828	  0.210908	  0.087078	  0.045133	  0.060532	
1.735	  0.058753	  0.075575	  0.379330	  0.149300	  0.416326	  0.242878	  0.012051	  0.063017	  0.039561	  0.022899	  0.231836	  0.005103	  0.212667	  0.087685	  0.045608	  0.061000	
1.7355	  0.059971	  0.075635	  0.378903	  0.147443	  0.416504	  0.240958	  0.012152	  0.063789	  0.040127	  0.022756	  0.231090	  0.005392	  0.214426	  0.088302	  0.046110	  0.061484	
1.736	  0.061211	  0.075703	  0.378461	  0.145618	  0.416721	  0.239026	  0.012274	  0.064585	  0.040710	  0.022615	  0.230346	  0.005695	  0.216184	  0.088926	  0.046639	  0.061986	
1.7365	  0.062470	  0.075782	  0.378004	  0.143823	  0.416978	  0.237082	  0.012416	  0.065403	  0.041310	  0.022477	  0.229602	  0.006011	  0.217940	  0.089559	  0.047197	  0.062506	
1.737	  0.063750	  0.075869	  0.377532	  0.142060	  0.417271	  0.235127	  0.012580	  0.066244	  0.041927	  0.022341	  0.228858	  0.006342	  0.219691	  0.090199	  0.047783	  0.063045	
1.7375	  0.065051	  0.075967	  0.377045	  0.140329	  0.417601	  0.233161	  0.012764	  0.067109	  0.042561	  0.022208	  0.228113	  0.006688	  0.221437	  0.090846	  0.048399	  0.063602	
1.738	  0.066372	  0.076075	  0.376544	  0.138632	  0.417964	  0.231186	  0.012970	  0.067998	  0.043212	  0.022077	  0.227364	  0.007049	  0.223176	  0.091500	  0.049045	  0.064178	
1.7385	  0.067714	  0.076193	  0.376030	  0.136970	  0.418361	  0.229201	  0.013198	  0.068911	  0.043881	  0.021949	  0.226612	  0.007424	  0.224906	  0.092160	  0.049721	  0.064773	
1.739	  0.069075	  0.076321	  0.375502	  0.135342	  0.418790	  0.227210	  0.013448	  0.069848	  0.044567	  0.021824	  0.225856	  0.007816	  0.226627	  0.092826	  0.050428	  0.065388	
1.7395	  0.070457	  0.076460	  0.374961	  0.133751	  0.419248	  0.225211	  0.013722	  0.070810	  0.045270	  0.021701	  0.225094	  0.008223	  0.228337	  0.093497	  0.051167	  0.066023	
1.74	  0.071859	  0.076610	  0.374408	  0.132196	  0.419733	  0.223207	  0.014018	  0.071797	  0.045991	  0.021581	  0.224324	  0.008647	  0.230035	  0.094174	  0.051937	  0.066679	
1.7405	  0.073281	  0.076771	  0.373842	  0.130679	  0.420246	  0.221199	  0.014338	  0.072809	  0.046730	  0.021465	  0.223547	  0.009087	  0.231718	  0.094856	  0.052741	  0.067354	
